<svg width="17" height="17" viewBox="0 0 17 17" fill="none" xmlns="http://www.w3.org/2000/svg">
<path d="M8.69998 0.849976H8.33998C6.83487 0.849976 5.36355 1.29629 4.11209 2.13249C2.86064 2.96869 1.88524 4.15721 1.30926 5.54775C0.733278 6.9383 0.582574 8.46842 0.876208 9.94461C1.16984 11.4208 1.89462 12.7768 2.9589 13.8411C4.02318 14.9053 5.37915 15.6301 6.85535 15.9238C8.33154 16.2174 9.86166 16.0667 11.2522 15.4907C12.6428 14.9147 13.8313 13.9393 14.6675 12.6879C15.5037 11.4364 15.95 9.96509 15.95 8.45998V8.10998" stroke="white" stroke-width="1.42" stroke-miterlimit="10"/>
<path d="M0.72998 8.46002H3.34998" stroke="white" stroke-width="0.71" stroke-miterlimit="10"/>
<path d="M8.33997 13.44V16.07" stroke="white" stroke-width="0.71" stroke-miterlimit="10"/>
<path d="M8.33997 3.46998V0.849976" stroke="white" stroke-width="0.71" stroke-miterlimit="10"/>
<path d="M13.3199 8.46002H15.9499" stroke="white" stroke-width="0.71" stroke-miterlimit="10"/>
<path d="M8.36996 9.15002C8.75104 9.15002 9.05996 8.8411 9.05996 8.46002C9.05996 8.07894 8.75104 7.77002 8.36996 7.77002C7.98889 7.77002 7.67996 8.07894 7.67996 8.46002C7.67996 8.8411 7.98889 9.15002 8.36996 9.15002Z" fill="white"/>
<path d="M8.03003 9.05C8.15781 8.70868 8.30471 8.37482 8.47003 8.05L9.21003 7.33L10.62 5.85001L12.02 4.37L12.7 3.63C13.02 3.46 13.32 3.28 13.7 3.13C13.57 3.48 13.4 3.79 13.25 4.13L12.55 4.87L11.14 6.36L9.73003 7.84L9.03003 8.58C8.67003 8.72 8.37003 8.91 8.03003 9.05Z" fill="white"/>
</svg>
