<svg width="19" height="19" viewBox="0 0 19 19" fill="none" xmlns="http://www.w3.org/2000/svg">
<path d="M11.5867 1.08474e-06C11.676 -0.000158529 11.7646 0.0172981 11.8472 0.0513731C11.9298 0.0854481 12.0049 0.135473 12.0682 0.198588L18.8009 6.93151C18.9284 7.05904 19 7.232 19 7.41233C19 7.59267 18.9284 7.76562 18.8009 7.89316C18.148 8.54605 17.3428 8.69295 16.7566 8.69295C16.5158 8.69295 16.3009 8.66847 16.1309 8.6399L11.8682 12.9027C11.9804 13.3549 12.0532 13.8159 12.0858 14.2806C12.1484 15.2354 12.0423 16.5752 11.1065 17.511C10.979 17.6385 10.806 17.7102 10.6257 17.7102C10.4454 17.7102 10.2724 17.6385 10.1449 17.511L6.29705 13.6644L1.96906 17.9925C1.70383 18.2578 0.311036 19.2194 0.0458074 18.9542C-0.219421 18.689 0.742203 17.2948 1.00743 17.0309L5.33542 12.7028L1.48892 8.85481C1.36143 8.72728 1.28981 8.55432 1.28981 8.37399C1.28981 8.19365 1.36143 8.0207 1.48892 7.89316C2.42471 6.95735 3.76445 6.8499 4.71927 6.91383C5.18398 6.94639 5.64498 7.01921 6.0971 7.13146L10.3598 2.86999C10.3242 2.66286 10.306 2.45311 10.3054 2.24295C10.3054 1.65807 10.4523 0.852838 11.1065 0.198588C11.234 0.071453 11.4066 3.93318e-05 11.5867 1.08474e-06V1.08474e-06Z" fill="#FFD233"/>
</svg>
